<?xml version="1.0" encoding="utf-8"?>
<!-- Generator: Adobe Illustrator 23.1.0, SVG Export Plug-In . SVG Version: 6.00 Build 0)  -->
<svg version="1.1" id="Layer_1" xmlns="http://www.w3.org/2000/svg" xmlns:xlink="http://www.w3.org/1999/xlink" x="0px" y="0px"
	 viewBox="0 0 455 141" style="enable-background:new 0 0 455 141;" xml:space="preserve">
<style type="text/css">
	.Arched_x0020_Green{fill:url(#SVGID_1_);stroke:#FFFFFF;stroke-width:0.25;stroke-miterlimit:1;}
	.st0{fill:#00457D;}
	.st1{fill:#F49F22;}
</style>
<linearGradient id="SVGID_1_" gradientUnits="userSpaceOnUse" x1="-1930" y1="258" x2="-1929.2928" y2="257.2929">
	<stop  offset="0" style="stop-color:#259E2E"/>
	<stop  offset="0.9831" style="stop-color:#1C381D"/>
</linearGradient>
<g>
	<g>
		<path class="st0" d="M227,81V45.9c0-2.6-3.5-3.3-3.5-3.3H216v52.6h41.1c0,0,3.4,0.4,3.4-3.6v-6.7h-29.3C226.3,84.8,227,81,227,81z
			"/>
		<path class="st0" d="M94.4,66.9c0.3-0.3,0.6-0.7,0.9-1c1.7-2.3,2.7-5.4,2.7-8.5c0-4.4-1.9-8.5-5.2-11.2c-4.3-3.6-9.2-3.6-13.1-3.6
			H48.8c-5,0-5.6,3.6-5.6,3.6v49h39.2c5.4,0,9.6-1.2,12.5-3.5c3.5-2.8,5.5-7.3,5.5-12.3C100.4,74.2,98.2,69.7,94.4,66.9z M54.2,55.5
			c0-2.4,2.1-2.7,4.1-2.7h21.5c3.1,0,4.5,0.5,5.1,0.8c0.9,0.6,1.9,2,1.9,4.1c0,1-0.2,2.2-1.3,3.3c-1.6,1.5-4.2,1.6-6.4,1.6H54.2
			C54.2,62.6,54.2,57.3,54.2,55.5z M88,83.2c-1.4,1.5-3.7,1.7-5.7,1.7h-28V73h24.6c6.1,0,8.1,1.2,8.8,1.9l0.2,0.2
			c0.2,0.2,1.5,1.5,1.5,4.2C89.3,81.6,88.3,82.8,88,83.2z"/>
		<path class="st0" d="M275.4,72.9h34c2.9,0,2.6-2.6,2.6-2.6v-7.8h-36.6v-5.6v-0.4c0-0.3,0-0.7,0-0.9c0-2.4,2.1-2.7,4.1-2.7h1.4
			l0.9,0H312c0,0,3,0.2,3-2.8v-7.5h-45.7c-5.3,0-4.9,3.7-4.9,3.7v48.9h49.7c0,0,2.8,0.2,2.8-2.9v-7.5h-41.5V72.9z"/>
		<path class="st0" d="M164.1,85.6c6.7,0,17,0,20.9,0c0.4,0,0.9,0,1.5,0c4.1-0.1,13.8,0.2,14.7-5.2c0.1-0.3,0.1-0.6,0.1-0.8
			c-0.2-2.1-1.2-5.9-15.4-6.5c-7.8-0.3-13.4-0.6-18.1-2.4c-5.7-2.1-8.7-6.1-8.8-11.8l0-0.5c0-9.7,8-15.1,22.4-15.8
			c0.8,0,1.6-0.1,2.5-0.1l1,0l0.4,0c6.7,0,13.2,0,24.4,0.1v6.6c0,3.6-4.2,3.3-4.2,3.3c-9.2,0-15.1,0-19.4,0c-0.4,0-0.9,0-1.5,0
			l-0.6,0c-0.7,0-1.6,0-2.7,0.1c-4.3,0.2-11.2,0.9-11.2,5c0,0.3,0,0.6,0.1,0.8c0.4,1.5,2.1,3.5,13.8,4l0.7,0
			c8,0.3,14.3,1.5,19.2,3.6c5.8,2.5,8.7,7,8.7,13.3c0,0.3,0,0.7,0,1v0.1l-0.1,0.6c-0.5,5.8-3.4,13.7-24.1,14.2l-0.1,0.1l-0.7,0
			l-0.8,0c-7.2,0-14.4,0-22.9,0c0,0-3.4-6.8-3.4-6.8S159.6,85.6,164.1,85.6z"/>
		<path class="st1" d="M399.7,24.9c-4.8-4.8-11.2-5.3-11.2-5.3c-12.6,5.4-25.2,13-25.2,13s18.9-8.5,38.4-4.6
			C401.7,28.1,400.6,25.9,399.7,24.9z"/>
		<path class="st0" d="M423.2,19.2c-5.5-8.4-20.5-5.5-30.1-2.5c2.8,0.8,18,2,12.5,25.2c-3.3,13.7-13.1,29.9-12.7,30.7
			C393.4,73.8,432.8,33.9,423.2,19.2z"/>
		<path class="st0" d="M363.1,73.9c2.4-0.5,4.9-1.4,7-3.1c1.3-1.1,2.4-2.3,3.3-3.7c0.1-0.1,0.1-0.2,0.2-0.3c1.4-2.4,2.2-5.2,2.2-8.3
			c0-5.8-2.9-11-7.5-13.7c-3.9-2.2-8.4-2.2-11.7-2.2h-31c-3.9,0-4.1,3.1-4.1,3.1v49.5h8.1c0,0,2.8,0.1,2.8-3.3V74.6h13.5
			c0,0,0.2,0,0.5,0c0.1,0,1.1,0,2.5,0L363.2,91l0,0c1,1.2,1.7,1.9,1.7,1.9s1.9,2.3,5.9,2.3H382L363.1,73.9z M332.4,64.2v-8.4
			c0,0-0.4-3,3.6-3h20.8c2.2,0,4.4,0,5.9,1.2c0.8,0.6,1.8,2.1,1.8,4.2c0,1.6-0.5,3.1-1.4,4c-1.7,1.8-4.9,2-9.2,2H332.4z"/>
		<path class="st0" d="M133.1,42.6h-3.4h-1c-4.7,0-5,0.7-6.5,3.8c-3,6.3-9.3,17.6-14.6,28.4c2.8-2.2,7.4-4.5,14.1-4.9l6.9-12.6
			l7.9,15.8h-15.7l0,0c-9.3,0.8-13.9,5.5-15.4,7.6c-3.6,7.3-6.3,12.7-6.3,12.7s-1.1,1.8,1.2,1.8h9.7l4-8.2c0,0,1.8-3.8,6.4-3.8h21.1
			c0,0,3.6,7,4.6,9.1c0.8,1.6,1.4,2.9,4.3,2.9h1.8c2.7,0,5.1,0,7.2,0L133.1,42.6z"/>
	</g>
	<g>
		<path class="st0" d="M146.5,126.9v-8.4h-1.9v-1.8h1.9v-4.2h2.1v4.2h4.4v1.8h-4.4v8.1c0,1.7,0.9,2.3,2.3,2.3c0.7,0,1.3-0.1,2-0.5
			v1.8c-0.7,0.4-1.5,0.6-2.5,0.6C148.2,130.9,146.5,129.8,146.5,126.9z"/>
		<path class="st0" d="M156.1,110.9h2.1v8.2c0.9-1.5,2.4-2.7,4.8-2.7c3.4,0,5.3,2.3,5.3,5.6v8.7h-2.1v-8.1c0-2.6-1.4-4.2-3.9-4.2
			c-2.4,0-4.2,1.8-4.2,4.4v8h-2.1V110.9z"/>
		<path class="st0" d="M177.8,129.1c1.9,0,3.3-0.8,4.4-2l1.3,1.2c-1.4,1.6-3.1,2.6-5.7,2.6c-3.8,0-7-2.9-7-7.3c0-4,2.8-7.3,6.7-7.3
			c4.1,0,6.5,3.3,6.5,7.4c0,0.2,0,0.4,0,0.7h-11.1C173.2,127.4,175.4,129.1,177.8,129.1z M181.9,122.8c-0.2-2.5-1.7-4.7-4.4-4.7
			c-2.4,0-4.2,2-4.5,4.7H181.9z"/>
		<path class="st0" d="M195.7,116.7h2.1v2.8c1.1-1.7,2.8-3.1,5.3-3.1c3.3,0,6.7,2.6,6.7,7.2v0.1c0,4.6-3.3,7.3-6.7,7.3
			c-2.6,0-4.3-1.4-5.3-3v7h-2.1V116.7z M207.7,123.7L207.7,123.7c0-3.3-2.3-5.4-4.9-5.4c-2.6,0-5,2.2-5,5.4v0.1c0,3.2,2.5,5.4,5,5.4
			C205.5,129.1,207.7,127.1,207.7,123.7z"/>
		<path class="st0" d="M212.7,123.7L212.7,123.7c0-4,3.1-7.3,7.3-7.3c4.2,0,7.3,3.3,7.3,7.2v0.1c0,3.9-3.1,7.3-7.3,7.3
			C215.7,130.9,212.7,127.7,212.7,123.7z M225.1,123.7L225.1,123.7c0-3-2.2-5.5-5.2-5.5c-3,0-5.1,2.5-5.1,5.4v0.1
			c0,3,2.2,5.4,5.2,5.4C223,129.1,225.1,126.7,225.1,123.7z"/>
		<path class="st0" d="M227.9,116.7h2.2l3.7,11.2l3.8-11.2h1.7l3.8,11.2l3.7-11.2h2.2l-4.9,14h-1.8l-3.7-11l-3.8,11h-1.8
			L227.9,116.7z"/>
		<path class="st0" d="M257.9,129.1c1.9,0,3.3-0.8,4.4-2l1.3,1.2c-1.4,1.6-3.1,2.6-5.7,2.6c-3.8,0-7-2.9-7-7.3c0-4,2.8-7.3,6.7-7.3
			c4.1,0,6.5,3.3,6.5,7.4c0,0.2,0,0.4,0,0.7H253C253.3,127.4,255.5,129.1,257.9,129.1z M262,122.8c-0.2-2.5-1.7-4.7-4.4-4.7
			c-2.4,0-4.2,2-4.5,4.7H262z"/>
		<path class="st0" d="M267.7,116.7h2.1v3.6c1-2.3,3-4,5.7-3.9v2.2h-0.2c-3,0-5.5,2.2-5.5,6.4v5.6h-2.1V116.7z"/>
		<path class="st0" d="M284.9,123.7L284.9,123.7c0-4,3.1-7.3,7.3-7.3c4.2,0,7.3,3.3,7.3,7.2v0.1c0,3.9-3.1,7.3-7.3,7.3
			C287.9,130.9,284.9,127.7,284.9,123.7z M297.3,123.7L297.3,123.7c0-3-2.2-5.5-5.2-5.5c-3,0-5.1,2.5-5.1,5.4v0.1
			c0,3,2.2,5.4,5.2,5.4C295.2,129.1,297.3,126.7,297.3,123.7z"/>
		<path class="st0" d="M303.4,118.5h-1.9v-1.8h1.9v-1.2c0-1.6,0.4-2.8,1.2-3.6c0.7-0.7,1.7-1.1,3-1.1c1,0,1.6,0.1,2.3,0.3v1.8
			c-0.8-0.2-1.3-0.4-2-0.4c-1.6,0-2.4,1-2.4,3v1.1h4.4v1.8h-4.4v12.1h-2.1V118.5z"/>
		<path class="st1" d="M319.5,128.8l1.1-1.5c1.5,1.1,3.2,1.8,4.8,1.8c1.7,0,2.9-0.9,2.9-2.2v-0.1c0-1.4-1.6-1.9-3.5-2.5
			c-2.2-0.6-4.6-1.4-4.6-3.9v-0.1c0-2.4,2-4,4.7-4c1.7,0,3.6,0.6,5,1.5l-0.9,1.6c-1.3-0.8-2.8-1.3-4.1-1.3c-1.6,0-2.7,0.9-2.7,2v0.1
			c0,1.3,1.7,1.8,3.6,2.4c2.2,0.6,4.5,1.5,4.5,4v0.1c0,2.6-2.2,4.2-5,4.2C323.2,130.9,321,130.1,319.5,128.8z"/>
		<path class="st1" d="M333.6,111.3h2.4v2.3h-2.4V111.3z M333.7,116.7h2.1v13.9h-2.1V116.7z"/>
		<path class="st1" d="M339.9,133l0.9-1.6c1.6,1.2,3.4,1.8,5.4,1.8c3.1,0,5.1-1.7,5.1-5v-1.6c-1.2,1.6-2.9,2.9-5.5,2.9
			c-3.3,0-6.6-2.5-6.6-6.5V123c0-4.1,3.2-6.6,6.6-6.6c2.6,0,4.3,1.3,5.4,2.8v-2.5h2.1v11.5c0,2.2-0.6,3.8-1.8,4.9
			c-1.2,1.2-3.1,1.9-5.3,1.9C343.9,135,341.8,134.3,339.9,133z M351.3,123L351.3,123c0-2.9-2.5-4.8-5.1-4.8c-2.6,0-4.8,1.8-4.8,4.7
			v0.1c0,2.8,2.2,4.7,4.8,4.7C348.9,127.7,351.3,125.8,351.3,123z"/>
		<path class="st1" d="M357.4,110.9h2.1v8.2c0.9-1.5,2.4-2.7,4.8-2.7c3.4,0,5.3,2.3,5.3,5.6v8.7h-2.1v-8.1c0-2.6-1.4-4.2-3.9-4.2
			c-2.4,0-4.2,1.8-4.2,4.4v8h-2.1V110.9z"/>
		<path class="st1" d="M374.2,126.9v-8.4h-1.9v-1.8h1.9v-4.2h2.1v4.2h4.4v1.8h-4.4v8.1c0,1.7,0.9,2.3,2.3,2.3c0.7,0,1.3-0.1,2-0.5
			v1.8c-0.7,0.4-1.5,0.6-2.5,0.6C375.9,130.9,374.2,129.8,374.2,126.9z"/>
	</g>
</g>
</svg>
