<?xml version="1.0" encoding="UTF-8" standalone="no"?>
<svg
   xmlns:dc="http://purl.org/dc/elements/1.1/"
   xmlns:cc="http://creativecommons.org/ns#"
   xmlns:rdf="http://www.w3.org/1999/02/22-rdf-syntax-ns#"
   xmlns:svg="http://www.w3.org/2000/svg"
   xmlns="http://www.w3.org/2000/svg"
   xmlns:sodipodi="http://sodipodi.sourceforge.net/DTD/sodipodi-0.dtd"
   xmlns:inkscape="http://www.inkscape.org/namespaces/inkscape"
   version="1.1"
   id="Laag_1"
   x="0px"
   y="0px"
   viewBox="0 0 788.85246 88.169992"
   xml:space="preserve"
   sodipodi:docname="Ensenso_logo_no_tag_horizontal.svg"
   width="788.85248"
   height="88.169998"
   inkscape:version="1.0.1 (3bc2e813f5, 2020-09-07)"><metadata
   id="metadata57"><rdf:RDF><cc:Work
       rdf:about=""><dc:format>image/svg+xml</dc:format><dc:type
         rdf:resource="http://purl.org/dc/dcmitype/StillImage" /><dc:title></dc:title></cc:Work></rdf:RDF></metadata><defs
   id="defs55" /><sodipodi:namedview
   pagecolor="#ffffff"
   bordercolor="#666666"
   borderopacity="1"
   objecttolerance="10"
   gridtolerance="10"
   guidetolerance="10"
   inkscape:pageopacity="0"
   inkscape:pageshadow="2"
   inkscape:window-width="767"
   inkscape:window-height="480"
   id="namedview53"
   showgrid="false"
   fit-margin-top="0"
   fit-margin-left="0"
   fit-margin-right="0"
   fit-margin-bottom="0"
   inkscape:zoom="1.2032451"
   inkscape:cx="791.69381"
   inkscape:cy="11.665015"
   inkscape:window-x="157"
   inkscape:window-y="0"
   inkscape:window-maximized="0"
   inkscape:current-layer="Laag_1" />
<style
   type="text/css"
   id="style2">
	.st0{fill:#E30613;}
	.st1{fill:#1C2463;}
	.st2{fill:#26358C;}
</style>
<path
   class="st0"
   d="m 788.53,43.315 -43,-43 c -0.42,-0.42 -1.12,-0.42 -1.54,0 l -11.01,11.01 -11.01,-11.01 c -0.42,-0.42 -1.12,-0.42 -1.54,0 l -43,43 c -0.42,0.42 -0.42,1.12 0,1.54 l 43,43 c 0.42,0.42 1.12,0.42 1.54,0 l 11.01,-11.01 11.01,11.01 c 0.42,0.42 1.12,0.42 1.54,0 l 43,-43 c 0.43,-0.43 0.43,-1.12 0,-1.54 z m -66.56,33.08 c -0.42,0.42 -1.12,0.42 -1.54,0 l -31.54,-31.54 c -0.42,-0.42 -0.42,-1.12 0,-1.54 l 31.54,-31.54 c 0.42,-0.42 1.12,-0.42 1.54,0 l 5.28,5.28 -26.26,26.26 c -0.42,0.42 -0.42,1.12 0,1.54 l 26.26,26.26 z m 11.01,-53.62 20.53,20.53 c 0.42,0.42 0.42,1.12 0,1.54 l -20.53,20.53 -20.53,-20.53 c -0.42,-0.42 -0.42,-1.12 0,-1.54 z m 44.09,22.08 -31.54,31.54 c -0.42,0.42 -1.12,0.42 -1.54,0 l -5.28,-5.28 26.26,-26.26 c 0.42,-0.42 0.42,-1.12 0,-1.54 l -26.26,-26.26 5.28,-5.28 c 0.42,-0.42 1.12,-0.42 1.54,0 l 31.54,31.54 c 0.43,0.42 0.43,1.11 0,1.54 z"
   id="path4" />
<path
   class="st1"
   d="m 74.19,17.785 c -1.35,-1.35 -3.23,-2.34 -5.58,-2.93 -2.46,-0.62 -5.6,-0.94 -9.35,-0.94 h -33.2 c -5.03,0 -9.28,0.43 -12.64,1.28 -3.27,0.83 -5.93,2.13 -7.89,3.87 -1.94,1.73 -3.36,3.99 -4.21,6.73 C 0.45,28.605 0,32.045 0,36.005 v 16.31 c 0,3.96 0.45,7.4 1.32,10.21 0.85,2.73 2.27,5 4.21,6.73 1.96,1.74 4.61,3.02 7.88,3.81 3.35,0.81 7.61,1.22 12.65,1.22 h 48.82 c 0.85,0 1.13,-0.27 1.13,-1.13 v -9.52 c 0,-0.85 -0.27,-1.13 -1.13,-1.13 H 27.65 c -5.2,0 -8.64,-0.86 -10.53,-2.62 -1.89,-1.76 -2.84,-4.58 -2.84,-8.38 v -3.63 H 72.4 c 1.95,0 3.38,-0.4 4.26,-1.18 0.85,-0.76 1.28,-2.23 1.28,-4.36 v -10.76 c 0,-3.3 -0.3,-6.14 -0.88,-8.44 -0.56,-2.2 -1.53,-4 -2.87,-5.35 z M 63.9,36.795 c 0,1.78 -1.06,2.84 -2.84,2.84 H 14.27 v -3.97 c 0,-3.88 0.96,-6.71 2.85,-8.43 1.89,-1.72 5.34,-2.56 10.53,-2.56 h 28.43 c 2.92,0 4.91,0.57 6.08,1.74 1.15,1.15 1.74,3.05 1.74,5.63 z"
   id="path6" />
<path
   class="st1"
   d="m 168.25,19.065 c -1.96,-1.74 -4.63,-3.04 -7.94,-3.87 -3.39,-0.85 -7.63,-1.28 -12.58,-1.28 h -32.51 c -5.03,0 -9.28,0.43 -12.64,1.28 -3.27,0.83 -5.93,2.13 -7.89,3.87 -1.94,1.73 -3.36,3.99 -4.21,6.73 -0.87,2.81 -1.32,6.25 -1.32,10.21 v 36.7 c 0,0.97 0.29,1.58 1.69,1.58 h 11.1 c 1.15,0 1.58,-0.43 1.58,-1.58 v -32.85 c 0,-2.41 0.2,-4.48 0.59,-6.16 0.41,-1.78 1.16,-3.23 2.23,-4.29 1.06,-1.05 2.47,-1.82 4.21,-2.27 1.66,-0.43 3.75,-0.65 6.24,-0.65 h 30.13 c 2.48,0 4.55,0.22 6.13,0.66 1.67,0.46 3.01,1.23 4,2.3 0.98,1.07 1.65,2.52 1.98,4.31 0.31,1.68 0.47,3.74 0.47,6.11 v 32.85 c 0,1.15 0.43,1.58 1.58,1.58 h 11.11 c 1.15,0 1.58,-0.43 1.58,-1.58 v -36.7 c 0,-3.96 -0.45,-7.4 -1.32,-10.21 -0.85,-2.74 -2.26,-5 -4.21,-6.74 z"
   id="path8" />
<path
   class="st1"
   d="m 245.16,38.725 h -38.18 c -2.61,0 -4.41,-0.51 -5.5,-1.55 -1.09,-1.04 -1.64,-2.46 -1.64,-4.23 v -1.7 c 0,-1.91 0.55,-3.41 1.64,-4.46 1.09,-1.05 2.89,-1.55 5.5,-1.55 h 51.09 c 0.86,0 1.13,-0.27 1.13,-1.13 v -9.06 c 0,-0.86 -0.27,-1.13 -1.13,-1.13 h -55.28 c -3.21,0 -5.94,0.35 -8.11,1.03 -2.12,0.67 -3.85,1.65 -5.14,2.9 -1.28,1.25 -2.21,2.77 -2.76,4.55 -0.58,1.83 -0.87,3.89 -0.87,6.13 v 4.99 c 0,4.7 1.28,8.31 3.8,10.73 2.53,2.42 6.89,3.65 12.96,3.65 h 38.06 c 2.6,0 4.41,0.48 5.53,1.48 1.15,1.01 1.73,2.42 1.73,4.19 v 3.06 c 0,2.23 -0.58,3.87 -1.73,4.88 -1.12,0.99 -2.93,1.47 -5.53,1.47 h -53.7 c -0.86,0 -1.13,0.27 -1.13,1.13 v 9.06 c 0,0.85 0.27,1.13 1.13,1.13 h 58 c 3.22,0 5.95,-0.35 8.1,-1.03 2.11,-0.67 3.84,-1.64 5.14,-2.9 1.3,-1.26 2.2,-2.77 2.76,-4.6 0.58,-1.88 0.87,-4.03 0.87,-6.41 v -6.35 c 0,-4.55 -1.28,-8.11 -3.8,-10.56 -2.52,-2.47 -6.88,-3.72 -12.94,-3.72 z"
   id="path10" />
<path
   class="st1"
   d="m 345.28,17.785 c -1.35,-1.35 -3.23,-2.34 -5.58,-2.93 -2.46,-0.62 -5.6,-0.94 -9.35,-0.94 h -33.19 c -5.03,0 -9.28,0.43 -12.64,1.28 -3.27,0.83 -5.93,2.13 -7.89,3.87 -1.94,1.73 -3.36,3.99 -4.21,6.73 -0.87,2.81 -1.32,6.25 -1.32,10.21 v 16.31 c 0,3.96 0.45,7.4 1.32,10.21 0.85,2.73 2.27,5 4.21,6.73 1.96,1.74 4.61,3.02 7.88,3.81 3.35,0.81 7.61,1.22 12.65,1.22 h 48.82 c 0.85,0 1.13,-0.27 1.13,-1.13 v -9.52 c 0,-0.85 -0.27,-1.13 -1.13,-1.13 h -47.24 c -5.2,0 -8.64,-0.86 -10.53,-2.62 -1.89,-1.76 -2.84,-4.58 -2.84,-8.38 v -3.63 h 58.12 c 1.95,0 3.38,-0.4 4.26,-1.18 0.85,-0.76 1.28,-2.23 1.28,-4.36 v -10.76 c 0,-3.3 -0.3,-6.14 -0.88,-8.44 -0.56,-2.2 -1.53,-4 -2.87,-5.35 z M 335,36.795 c 0,1.78 -1.06,2.84 -2.84,2.84 h -46.8 v -3.97 c 0,-3.87 0.96,-6.71 2.85,-8.43 1.89,-1.72 5.34,-2.56 10.53,-2.56 h 28.43 c 2.92,0 4.91,0.57 6.08,1.74 1.15,1.15 1.74,3.05 1.74,5.63 v 4.75 z"
   id="path12" />
<path
   class="st1"
   d="m 439.35,19.065 c -1.96,-1.74 -4.63,-3.04 -7.94,-3.87 -3.39,-0.85 -7.63,-1.28 -12.58,-1.28 h -32.51 c -5.03,0 -9.28,0.43 -12.64,1.28 -3.27,0.83 -5.93,2.13 -7.89,3.87 -1.94,1.73 -3.36,3.99 -4.21,6.73 -0.87,2.81 -1.32,6.25 -1.32,10.21 v 36.7 c 0,0.97 0.29,1.58 1.69,1.58 h 11.1 c 1.15,0 1.58,-0.43 1.58,-1.58 v -32.85 c 0,-2.41 0.2,-4.48 0.59,-6.16 0.41,-1.78 1.16,-3.22 2.23,-4.29 1.06,-1.06 2.47,-1.82 4.21,-2.28 1.66,-0.43 3.75,-0.65 6.24,-0.65 h 30.13 c 2.48,0 4.55,0.22 6.13,0.66 1.67,0.46 3.02,1.23 4,2.3 0.98,1.07 1.65,2.52 1.98,4.3 0.31,1.68 0.47,3.74 0.47,6.11 v 32.85 c 0,1.15 0.43,1.58 1.58,1.58 h 11.11 c 1.15,0 1.58,-0.43 1.58,-1.58 v -36.7 c 0,-3.97 -0.45,-7.41 -1.32,-10.21 -0.86,-2.72 -2.27,-4.98 -4.21,-6.72 z"
   id="path14" />
<path
   class="st1"
   d="m 516.25,38.725 h -38.18 c -2.61,0 -4.41,-0.51 -5.5,-1.55 -1.09,-1.04 -1.64,-2.46 -1.64,-4.23 v -1.7 c 0,-1.91 0.55,-3.41 1.64,-4.46 1.09,-1.05 2.89,-1.55 5.5,-1.55 h 51.09 c 0.86,0 1.13,-0.27 1.13,-1.13 v -9.06 c 0,-0.86 -0.27,-1.13 -1.13,-1.13 h -55.28 c -3.21,0 -5.94,0.35 -8.1,1.03 -2.12,0.67 -3.85,1.65 -5.14,2.9 -1.28,1.25 -2.21,2.77 -2.76,4.55 -0.58,1.83 -0.87,3.89 -0.87,6.13 v 4.99 c 0,4.7 1.28,8.31 3.8,10.73 2.53,2.42 6.89,3.65 12.96,3.65 h 38.06 c 2.6,0 4.41,0.48 5.53,1.48 1.15,1.01 1.73,2.42 1.73,4.19 v 3.06 c 0,2.23 -0.58,3.87 -1.73,4.88 -1.12,0.99 -2.93,1.47 -5.53,1.47 h -53.7 c -0.86,0 -1.13,0.27 -1.13,1.13 v 9.06 c 0,0.85 0.27,1.13 1.13,1.13 h 58 c 3.22,0 5.95,-0.35 8.1,-1.03 2.11,-0.67 3.84,-1.64 5.14,-2.9 1.3,-1.26 2.2,-2.77 2.76,-4.6 0.58,-1.88 0.87,-4.03 0.87,-6.41 v -6.35 c 0,-4.55 -1.28,-8.11 -3.8,-10.56 -2.53,-2.47 -6.89,-3.72 -12.95,-3.72 z"
   id="path16" />
<path
   class="st1"
   d="m 622.3,19.065 c -1.96,-1.74 -4.63,-3.05 -7.94,-3.87 -3.39,-0.85 -7.63,-1.28 -12.58,-1.28 h -32.06 c -5.03,0 -9.28,0.43 -12.63,1.28 -3.27,0.83 -5.93,2.13 -7.89,3.87 -1.94,1.73 -3.36,4 -4.21,6.73 -0.87,2.8 -1.32,6.24 -1.32,10.21 v 16.31 c 0,3.97 0.45,7.41 1.32,10.21 0.85,2.73 2.26,5 4.21,6.73 1.96,1.74 4.61,3.02 7.88,3.81 3.35,0.81 7.6,1.22 12.64,1.22 h 32.06 c 4.96,0 9.2,-0.41 12.59,-1.22 3.3,-0.79 5.97,-2.07 7.93,-3.81 1.94,-1.73 3.36,-3.99 4.21,-6.73 0.87,-2.8 1.32,-6.24 1.32,-10.21 v -16.31 c 0,-3.97 -0.44,-7.4 -1.32,-10.21 -0.85,-2.73 -2.27,-4.99 -4.21,-6.73 z m -8.74,30.42 c 0,2.47 -0.2,4.56 -0.59,6.22 -0.42,1.75 -1.17,3.17 -2.23,4.23 -1.06,1.06 -2.47,1.82 -4.21,2.28 -1.67,0.44 -3.75,0.65 -6.35,0.65 h -28.89 c -2.49,0 -4.59,-0.22 -6.24,-0.65 -1.74,-0.45 -3.16,-1.22 -4.21,-2.28 -1.06,-1.06 -1.81,-2.48 -2.22,-4.23 -0.4,-1.66 -0.59,-3.7 -0.59,-6.22 v -10.76 c 0,-2.41 0.2,-4.46 0.59,-6.1 0.41,-1.74 1.16,-3.17 2.21,-4.27 1.07,-1.11 2.5,-1.88 4.25,-2.29 1.65,-0.39 3.74,-0.59 6.21,-0.59 h 28.89 c 2.55,0 4.68,0.2 6.33,0.59 1.75,0.42 3.18,1.19 4.24,2.29 1.06,1.09 1.8,2.53 2.21,4.27 0.39,1.66 0.59,3.71 0.59,6.1 v 10.76 z"
   id="path18" />

</svg>
