<svg xmlns="http://www.w3.org/2000/svg" viewBox="0 0 417.31 170.35"><defs><style>.cls-1{fill:none;}.cls-2{fill:#062d64;}.cls-2,.cls-3{fill-rule:evenodd;}.cls-3{fill:#fbba00;}</style></defs><g id="Ebene_2" data-name="Ebene 2"><g id="Ebene_1-2" data-name="Ebene 1"><rect class="cls-1" width="417.31" height="170.35"/><path class="cls-2" d="M54.94.94H105.7L113,70.27h.29c1.87-6,31-69.33,31-69.33h50.26l.79,135.72H147.74l5.12-74.31c-1.66,4.47-34.06,74.31-34.06,74.31H88.49S78.19,68,78.55,62.35h-.07c-1.22,5.4-19.3,74.31-19.3,74.31H11.45L54.94.94Z"/><polygon class="cls-3" points="290.95 0.94 216.94 136.66 204.12 136.66 204.05 82.87 239.47 0.94 290.95 0.94 290.95 0.94"/><polygon class="cls-2" points="301.61 0.94 349.06 0.94 342 45.07 327.82 45 313.06 136.66 263.74 136.66 278.5 43.56 301.61 0.94 301.61 0.94"/><polygon class="cls-2" points="368.21 10.8 367.06 18.14 379.87 18.14 378.36 27.79 365.55 27.79 364.32 35.28 377.86 35.28 376.34 44.93 351.43 44.93 358.34 1.15 383.26 1.15 381.74 10.8 368.21 10.8 368.21 10.8"/><path class="cls-2" d="M415.44,12.31C415.08,12,413.5,11,410,11c-7,0-12.53,5.4-13.61,12.16-1.08,6.92,2.88,11.88,9.94,11.88a14,14,0,0,0,5.47-1.15L410,45.43a30.9,30.9,0,0,1-5.62.65A21.33,21.33,0,0,1,389,39.67c-4.11-4.39-5.48-10.08-4.4-16.56a27,27,0,0,1,9-16A27.42,27.42,0,0,1,411.34,0a21.64,21.64,0,0,1,6,.79l-1.87,11.52Z"/><path class="cls-2" d="M0,169.7H5l3.38-11.09,2.67,11.09h2l6.41-11.09h.07l-.36,11.09h5l.15-19.29h-5L13.61,160.7,11.3,150.41h-5L0,169.7Zm32.9-19.29H27.43l5,19.29h3.89l11.3-19.29H42.19l-6.55,11.73L32.9,150.41Zm23,4.25H60l.72-4.25H47.38l-.72,4.25h4.17l-2.37,15h5l2.37-15Zm8.64,6.55.22-.44.29-.43.28-.36.44-.29.86-.43,1-.14.86.14.72.43.29.29.22.36.14.43.07.44Zm9.36,2.23.15-1.59-.15-1.43-.43-1.23-.65-1.08-.36-.43-.5-.43-1.15-.58-1.37-.36-1.59-.14-1.58.14-1.44.36-1.3.58-1.22.79-1,1-.79,1.15-.65,1.37-.36,1.58-.14,1.59.21,1.44.51,1.15.72,1,1,.79,1.22.57,1.37.29,1.58.15,1.15-.08,1.08-.21,1.08-.29,1-.5.94-.65.86-.8.72-.93.58-1.08H68.83l-.5.58-.58.35-.57.22-.72.07-.72-.07-.51-.14-.5-.22-.36-.29-.22-.43-.21-.5v-.58l.07-.72H73.8l.07-.43Zm12.6-6.55-.65-.36-.72-.22-.79-.14-.79-.07-1.51.14-1.44.43-1.37.58-1.22.86-1,1-.87,1.22-.64,1.44L75,163.3,75,164.74l.22,1.29.5,1.15.72,1,.94.79,1.08.65,1.29.36,1.37.15.87-.08.86-.14.86-.22.87-.28.57-4-.57.36-.58.28-.65.15-.64.07-.72-.07-.58-.15-.5-.28-.44-.36-.28-.51-.22-.5-.07-.65.07-.65.14-.72.29-.58.36-.57.43-.43.58-.43.58-.29.64-.15.65-.07.65.07.58.22.57.29.43.36.65-4Zm25.27-5.4-1.29-.65-1.44-.5L107.5,150,106,149.9l-1.44.08-1.29.36-1.23.57-1.08.72-.93.94-.79,1.15-.58,1.22-.36,1.44-.07,1.23.07,1.08.36.79.5.65.65.57.79.44,2.09.64.87.29.93.43.36.29.36.36.15.36V164l-.15.5-.21.36-.29.36-.36.29-.79.29-.94.14-1.22-.14-1.08-.44-.94-.64-.86-.8-2.81,4,1.37.93,1.58.72,1.66.43,1.8.15,1.51-.07,1.51-.37,1.44-.57,1.3-.79.64-.51.51-.57.43-.65.36-.65.58-1.37.36-1.44.07-1.15-.15-.93-.28-.8-.51-.65-.57-.57-.8-.51-.79-.35-.93-.36-1.23-.37-.65-.21-.72-.36-.21-.29-.22-.29-.14-.28v-.44l.14-.36L104,155l.57-.51.72-.36.8-.07.86.07.86.29.72.43.65.51,2.59-3.89ZM121,156.1l-1.58.14-1.52.36-1.44.58-1.29.79L114,159l-.94,1.15-.65,1.44-.29.79-.14.79-.07.79v.8l.07.72.14.64.29.65.29.58.79,1,1.08.79,1.3.57,1.37.29,1.51.15,1.58-.15,1.51-.36,1.44-.5,1.3-.79,1.15-1,.94-1.23.36-.64.36-.72.21-.8.22-.79.07-.79v-.79l-.14-.72-.15-.72-.21-.58L127,159l-.79-1-1.08-.79-1.23-.58-1.44-.36L121,156.1Zm-.65,4.1H121l.58.22.5.28.36.36.29.44.14.5.07.58-.07.57-.14.58-.22.57-.36.51-.36.43-.5.36-.58.29-.57.14-.72.07-.65-.07-.58-.14-.43-.29-.43-.36-.22-.43-.21-.51-.08-.57.08-.58.14-.57.22-.58.36-.5.43-.44.43-.36.58-.28.64-.22Zm15.19.22h3.24l.58-3.89h-3.24l.36-2.09.22-.94.36-.72.28-.21.29-.22.79-.14.8.14.79.29.65-4-.94-.36-1-.14-1.37.14-1.22.43-1.22.65-1.08.86-.94,1.08-.58,1.16-.36,1.15-.21,1.22-.29,1.66h-1.58l-.65,3.89h1.65l-1.51,9.28H134l1.51-9.28Zm9.87,0H148l.65-3.89h-2.67l.65-3.89h-4.68l-.65,3.89h-1.51l-.57,3.89h1.51l-1.44,9.28h4.61l1.51-9.28Zm7.92-3.89h-5.11l4.75,13.17h3l4.39-7.2,2.09,7.2h3l8.92-13.17h-5.11l-4.46,7.13-2.16-7.13h-2.74l-4.46,7.13-2.16-7.13Zm28.58,3.6.65.07.58.22.43.28.36.36.29.44.14.5.07.58v.57l-.14.58-.29.57-.29.51-.43.43-.5.36-.51.29-.65.21h-1.36l-.51-.21-.5-.29-.36-.36-.29-.43-.14-.51-.08-.57.08-.58.14-.57.22-.58.28-.5.44-.51.5-.36.58-.29.57-.14.72-.07Zm8.07-3.53h-4.68l-.22,1.22-.29-.36-.43-.36-.86-.5-1.08-.36-1.08-.07-1.44.14-1.37.43-1.23.65-1.08.87-.93,1-.79,1.16-.51,1.29-.36,1.44-.14,1.37.21,1.3L174,167l.65,1.08.79.86,1,.65,1.23.43,1.36.15,1.23-.15,1.15-.29,1-.64.5-.37.43-.43-.21,1.44h4.68l2.09-13.1Zm7.77,0H193l-2,13.1h4.6l.87-5.32.36-1.59.29-.65.43-.57.5-.51.65-.36.72-.21.86-.07,1,.07.51.14.43.22.72-4.47H202l-1.29.15-1.23.43-1.15.72-.5.5-.44.58h-.07l.36-2.16Zm10,4.61.22-.44.21-.43.36-.36.43-.29.87-.43.93-.14.94.14.72.43.29.29.21.36.15.43.07.44Zm9.36,2.23.14-1.59-.14-1.43-.43-1.23-.65-1.08-.43-.43-.43-.43-1.16-.58-1.36-.36-1.59-.14-1.58.14-1.44.36-1.3.58-1.22.79-1,1-.86,1.15-.58,1.37-.36,1.58-.14,1.59.21,1.44.51,1.15.72,1,1,.79,1.23.57,1.37.29,1.58.15,1.08-.08,1.15-.21,1.08-.29,1-.5.94-.65.86-.8.72-.93.5-1.08H212l-.5.58-.58.35-.65.22-.65.07-.72-.07-.57-.14-.43-.22-.36-.29-.29-.43-.15-.5v-.58l.08-.72H217l.07-.43Zm21-4.54-.64,4h4.1l-.29.8-.36.64-.5.58-.51.5-.64.36-.72.29-.8.15-.79.07-1.15-.15-.94-.43-.79-.57-.57-.8-.44-.93-.21-1-.07-1.08.07-1.08.21-1.15.44-1.08.57-1,.72-.94.79-.79,1-.65,1.08-.36,1.15-.14.72.07.65.15.58.28.5.36.43.44.36.5.29.58.15.72,5.11-2-.51-1.3-.64-1.08-.8-.93-.93-.72-1.08-.65-1.15-.36-1.3-.29-1.44-.07-1.15.07-1.15.15-1.08.21-1,.29-1,.43-.94.51-.86.5-.86.65-.72.72-.72.79-.65.86-.58.94-.43,1-.43,1-.29,1.08-.29,1.15-.07,1.15-.07,1.08.07,1,.22.93.21.87.36.86.51.79.5.72.65.58.65.57.79.51.86.43.87.29,1,.22,1.08.14,1.08.07,1.23-.07,1.15-.14,1.15-.29,1.08-.43,1.08-.51,1-.65.94-.79.93-.94.72-.86.58-.93.5-.94.36-.94.58-1.87.43-2.09Zm17.14-2.3h-4.68l-2.09,13.1h4.68l1-6.26.22-1.22.36-1.16.36-.5.43-.43.57-.22.72-.14.65.14.43.22.36.43.15.5.07.58-.07.65-.15,1.15-1,6.26h4.68l1-6.26.22-1.22.22-.58.21-.58.36-.5.51-.36L265,160l.72-.14.65.14.43.22.22.43.21.51v1.15l-.14,1.15-1,6.26h4.61l1.37-8.35.07-1.08v-1l-.14-.86-.36-.79-.51-.58-.72-.5-.86-.29-1.15-.07-1.37.14-1.3.51-.65.36-.57.35L264,158l-.43.57-.29-.57-.36-.51-.43-.43-.5-.36-.58-.28-.57-.15-1.37-.14-1.23.14-1.15.36-1.08.65-1,.94H255l.29-1.66Zm18.36,13.1h4.68l.22-1.44h.07l.29.43.36.37.36.36.5.28,1,.29,1.15.15,1.44-.15,1.3-.43,1.29-.65,1.08-.86.94-1.08.79-1.15.58-1.3.28-1.37.15-1.44-.15-1.29-.43-1.16-.57-1-.87-.87-1-.65-1.15-.43-1.44-.14-1.15.07-1.08.36-1.08.5-1,.72,1.51-9.36H277L273.6,169.7Zm9-9.5h.72l.58.22.43.28.36.36.29.44.14.5.07.58v.57l-.14.58-.29.57-.29.51-.43.43-.5.36-.51.29-.65.14-.72.07L281,166l-.58-.14-.43-.29-.36-.36-.29-.43-.14-.51-.08-.57v-.58l.15-.57.29-.58.28-.5.44-.44.5-.36.5-.28.65-.22Zm15.7-2.38,1.15-7.41h-5l-3,19.29h5l1.23-7.92h7.27l-1.3,7.92h5l3-19.29h-5l-1.22,7.41Z"/></g></g></svg>