<?xml version="1.0" encoding="utf-8"?>
<!-- Generator: Adobe Illustrator 19.2.1, SVG Export Plug-In . SVG Version: 6.00 Build 0)  -->
<svg version="1.1" id="layer" xmlns="http://www.w3.org/2000/svg" xmlns:xlink="http://www.w3.org/1999/xlink" x="0px" y="0px"
	 viewBox="0 0 652 652" style="enable-background:new 0 0 652 652;" xml:space="preserve">
<style type="text/css">
	.st0{fill:#231815;}
	.st1{fill:none;stroke:#231815;stroke-width:2.6694;stroke-miterlimit:22.9256;}
	.st2{fill-rule:evenodd;clip-rule:evenodd;fill:#009844;}
	.st3{fill-rule:evenodd;clip-rule:evenodd;fill:#E50012;}
	.st4{fill-rule:evenodd;clip-rule:evenodd;fill:#1D2087;}
	.st5{fill:none;stroke:#231815;stroke-width:2.1022;stroke-miterlimit:22.9256;}
	.st6{fill:none;stroke:#231815;stroke-width:4.5541;stroke-miterlimit:22.9256;}
</style>
<path class="st0" d="M594.5,422.8v-36.3h5v5.2c2.4-4,5.8-6,10.3-6c2,0,3.8,0.4,5.4,1.2c1.7,0.8,2.9,1.8,3.7,3.1
	c0.8,1.3,1.4,2.8,1.7,4.5c0.2,1.1,0.3,3.1,0.3,6v22.3h-5.5v-22.1c0-2.5-0.2-4.4-0.6-5.6c-0.4-1.2-1.2-2.2-2.3-3
	c-1.1-0.7-2.4-1.1-3.8-1.1c-2.3,0-4.4,0.8-6.1,2.5c-1.7,1.7-2.5,4.8-2.5,9.5v19.8H594.5z M559.8,404.7c0,4.7,0.9,8.1,2.7,10.4
	c1.8,2.3,4.1,3.5,6.9,3.5c2.7,0,5-1.2,6.8-3.5c1.8-2.3,2.7-5.9,2.7-10.6c0-4.5-0.9-7.9-2.7-10.2c-1.8-2.3-4.1-3.5-6.8-3.5
	c-2.7,0-5,1.2-6.9,3.5C560.7,396.5,559.8,400,559.8,404.7z M554.1,404.7c0-6.7,1.7-11.7,5-14.9c2.8-2.7,6.2-4,10.2-4
	c4.5,0,8.1,1.6,11,4.9c2.8,3.3,4.2,7.8,4.2,13.5c0,4.7-0.6,8.3-1.9,11c-1.3,2.7-3.1,4.8-5.5,6.2c-2.4,1.5-5,2.2-7.9,2.2
	c-4.5,0-8.2-1.6-11-4.9C555.5,415.5,554.1,410.8,554.1,404.7z M538.8,422.8v-36.3h5.5v36.3H538.8z M538.8,379.8v-7.1h5.5v7.1H538.8z
	 M501.8,412l5.4-1c0.3,2.4,1.2,4.3,2.6,5.6c1.4,1.3,3.3,1.9,5.9,1.9c2.5,0,4.4-0.6,5.6-1.7c1.2-1.2,1.8-2.5,1.8-4
	c0-1.4-0.5-2.5-1.6-3.3c-0.7-0.5-2.6-1.2-5.6-2.1c-4-1.1-6.8-2.1-8.4-3c-1.6-0.8-2.7-2-3.6-3.5c-0.8-1.5-1.2-3.1-1.2-4.9
	c0-1.6,0.3-3.1,1-4.5c0.7-1.4,1.6-2.5,2.7-3.4c0.9-0.7,2-1.3,3.5-1.8c1.5-0.5,3.1-0.7,4.8-0.7c2.5,0,4.8,0.4,6.7,1.2
	c1.9,0.8,3.4,1.9,4.3,3.3c0.9,1.4,1.5,3.3,1.9,5.6l-5.4,0.8c-0.2-1.9-1-3.3-2.1-4.4c-1.2-1-2.8-1.6-5-1.6c-2.5,0-4.3,0.5-5.4,1.4
	c-1.1,0.9-1.6,2-1.6,3.3c0,0.8,0.2,1.5,0.7,2.2c0.4,0.7,1.1,1.2,2.1,1.6c0.6,0.2,2.2,0.7,4.9,1.6c3.9,1.2,6.6,2.1,8.1,2.9
	c1.5,0.7,2.8,1.8,3.6,3.2c0.9,1.4,1.3,3.2,1.3,5.3c0,2.1-0.5,4-1.6,5.8c-1.1,1.8-2.6,3.2-4.6,4.2c-2,1-4.3,1.5-6.9,1.5
	c-4.2,0-7.4-1-9.7-2.9C503.8,418.7,502.4,415.8,501.8,412z M486.6,422.8v-36.3h5.5v36.3H486.6z M486.6,379.8v-7.1h5.5v7.1H486.6z
	 M455.9,422.8l-17.4-50.1h6.4l11.7,36.4c0.9,2.9,1.7,5.7,2.4,8.2c0.7-2.7,1.5-5.5,2.4-8.2l12.1-36.4h6.1L462,422.8H455.9z
	 M394.3,401.2h18.1c-0.2-3-0.9-5.3-2.1-6.9c-1.8-2.4-4-3.6-6.8-3.6c-2.5,0-4.7,0.9-6.4,2.8C395.4,395.5,394.5,398,394.3,401.2z
	 M412.4,411.1l5.7,0.8c-0.9,3.7-2.6,6.6-5,8.6c-2.4,2-5.5,3.1-9.3,3.1c-4.8,0-8.5-1.6-11.3-4.9c-2.8-3.3-4.2-7.8-4.2-13.8
	c0-6.1,1.4-10.8,4.2-14.2c2.8-3.4,6.5-5.1,11-5.1c4.3,0,7.9,1.7,10.6,5c2.8,3.3,4.1,8,4.1,13.9c0,0.4,0,0.9,0,1.6H394
	c0.2,4,1.2,7,3,9.2c1.8,2.1,4.1,3.2,6.8,3.2c2,0,3.7-0.6,5.2-1.8C410.4,415.6,411.5,413.7,412.4,411.1z M351.8,422.8v-36.3h5v5.2
	c2.4-4,5.8-6,10.3-6c2,0,3.8,0.4,5.4,1.2c1.7,0.8,2.9,1.8,3.7,3.1c0.8,1.3,1.4,2.8,1.7,4.5c0.2,1.1,0.3,3.1,0.3,6v22.3h-5.5v-22.1
	c0-2.5-0.2-4.4-0.6-5.6c-0.4-1.2-1.2-2.2-2.3-3c-1.1-0.7-2.4-1.1-3.8-1.1c-2.3,0-4.4,0.8-6.1,2.5c-1.7,1.7-2.5,4.8-2.5,9.5v19.8
	H351.8z M334.4,422.8v-36.3h5.5v36.3H334.4z M334.4,379.8v-7.1h5.5v7.1H334.4z M296,422.8v-50.1h5.5v18c2.6-3.3,5.8-5,9.7-5
	c2.4,0,4.5,0.5,6.3,1.6c1.8,1.1,3,2.5,3.8,4.4c0.8,1.9,1.1,4.6,1.1,8.1v23H317v-23c0-3.1-0.6-5.3-1.8-6.7c-1.2-1.4-2.9-2.1-5.1-2.1
	c-1.6,0-3.2,0.5-4.6,1.4c-1.4,0.9-2.5,2.2-3.1,3.8c-0.6,1.6-0.9,3.8-0.9,6.7v19.8H296z M282.4,409.5l5.4,0.8
	c-0.6,4.2-2.1,7.4-4.5,9.8c-2.4,2.4-5.4,3.5-9,3.5c-4.4,0-8-1.6-10.7-4.9c-2.7-3.2-4.1-7.9-4.1-14c0-3.9,0.6-7.3,1.7-10.3
	c1.2-2.9,2.9-5.1,5.3-6.6c2.4-1.5,5-2.2,7.8-2.2c3.5,0,6.4,1,8.7,3c2.2,2,3.7,4.8,4.3,8.5l-5.4,0.9c-0.5-2.4-1.4-4.3-2.7-5.5
	c-1.3-1.2-2.9-1.8-4.7-1.8c-2.8,0-5,1.1-6.8,3.3c-1.7,2.2-2.6,5.7-2.6,10.5c0,4.9,0.8,8.4,2.5,10.6c1.7,2.2,3.9,3.3,6.6,3.3
	c2.2,0,4-0.7,5.4-2.2C281.1,414.9,282,412.6,282.4,409.5z M243.6,404.6c-2,0.9-5,1.7-9,2.3c-2.3,0.4-3.9,0.8-4.8,1.2
	c-0.9,0.5-1.7,1.1-2.2,2c-0.5,0.9-0.8,1.8-0.8,2.9c0,1.6,0.6,3,1.7,4.1c1.1,1.1,2.7,1.6,4.9,1.6c2.1,0,4-0.5,5.7-1.6
	c1.6-1,2.9-2.5,3.6-4.3c0.6-1.4,0.9-3.4,0.9-6.1V404.6z M244.1,418.3c-2,1.9-4,3.3-5.9,4.1c-1.9,0.8-3.9,1.2-6.1,1.2
	c-3.6,0-6.3-1-8.2-2.9c-1.9-1.9-2.9-4.4-2.9-7.5c0-1.8,0.4-3.4,1.1-4.9c0.7-1.5,1.7-2.6,2.8-3.5c1.2-0.9,2.5-1.6,4-2
	c1.1-0.3,2.7-0.6,4.9-0.9c4.4-0.6,7.7-1.3,9.8-2.1c0-0.8,0-1.4,0-1.6c0-2.5-0.5-4.3-1.6-5.3c-1.4-1.4-3.5-2.1-6.3-2.1
	c-2.6,0-4.5,0.5-5.7,1.5c-1.2,1-2.1,2.8-2.7,5.4l-5.4-0.8c0.5-2.6,1.3-4.7,2.4-6.2c1.1-1.6,2.7-2.8,4.9-3.7c2.1-0.9,4.6-1.3,7.4-1.3
	c2.8,0,5,0.4,6.8,1.1c1.7,0.7,3,1.6,3.8,2.8c0.8,1.1,1.4,2.5,1.7,4.2c0.2,1,0.3,2.9,0.3,5.7v8.2c0,5.7,0.1,9.3,0.4,10.8
	c0.2,1.5,0.7,3,1.4,4.4h-5.8C244.6,421.5,244.2,420,244.1,418.3z M167.7,422.8v-50.1h8.9l10.6,35.5c1,3.3,1.7,5.8,2.1,7.4
	c0.5-1.8,1.3-4.5,2.4-8l10.7-34.8h8v50.1h-5.7v-41.9l-13,41.9h-5.4l-13-42.6v42.6H167.7z"/>
<path class="st1" d="M594.5,422.8v-36.3h5v5.2c2.4-4,5.8-6,10.3-6c2,0,3.8,0.4,5.4,1.2c1.7,0.8,2.9,1.8,3.7,3.1
	c0.8,1.3,1.4,2.8,1.7,4.5c0.2,1.1,0.3,3.1,0.3,6v22.3h-5.5v-22.1c0-2.5-0.2-4.4-0.6-5.6c-0.4-1.2-1.2-2.2-2.3-3
	c-1.1-0.7-2.4-1.1-3.8-1.1c-2.3,0-4.4,0.8-6.1,2.5c-1.7,1.7-2.5,4.8-2.5,9.5v19.8H594.5z M559.8,404.7c0,4.7,0.9,8.1,2.7,10.4
	c1.8,2.3,4.1,3.5,6.9,3.5c2.7,0,5-1.2,6.8-3.5c1.8-2.3,2.7-5.9,2.7-10.6c0-4.5-0.9-7.9-2.7-10.2c-1.8-2.3-4.1-3.5-6.8-3.5
	c-2.7,0-5,1.2-6.9,3.5C560.7,396.5,559.8,400,559.8,404.7z M554.1,404.7c0-6.7,1.7-11.7,5-14.9c2.8-2.7,6.2-4,10.2-4
	c4.5,0,8.1,1.6,11,4.9c2.8,3.3,4.2,7.8,4.2,13.5c0,4.7-0.6,8.3-1.9,11c-1.3,2.7-3.1,4.8-5.5,6.2c-2.4,1.5-5,2.2-7.9,2.2
	c-4.5,0-8.2-1.6-11-4.9C555.5,415.5,554.1,410.8,554.1,404.7z M538.8,422.8v-36.3h5.5v36.3H538.8z M538.8,379.8v-7.1h5.5v7.1H538.8z
	 M501.8,412l5.4-1c0.3,2.4,1.2,4.3,2.6,5.6c1.4,1.3,3.3,1.9,5.9,1.9c2.5,0,4.4-0.6,5.6-1.7c1.2-1.2,1.8-2.5,1.8-4
	c0-1.4-0.5-2.5-1.6-3.3c-0.7-0.5-2.6-1.2-5.6-2.1c-4-1.1-6.8-2.1-8.4-3c-1.6-0.8-2.7-2-3.6-3.5c-0.8-1.5-1.2-3.1-1.2-4.9
	c0-1.6,0.3-3.1,1-4.5c0.7-1.4,1.6-2.5,2.7-3.4c0.9-0.7,2-1.3,3.5-1.8c1.5-0.5,3.1-0.7,4.8-0.7c2.5,0,4.8,0.4,6.7,1.2
	c1.9,0.8,3.4,1.9,4.3,3.3c0.9,1.4,1.5,3.3,1.9,5.6l-5.4,0.8c-0.2-1.9-1-3.3-2.1-4.4c-1.2-1-2.8-1.6-5-1.6c-2.5,0-4.3,0.5-5.4,1.4
	c-1.1,0.9-1.6,2-1.6,3.3c0,0.8,0.2,1.5,0.7,2.2c0.4,0.7,1.1,1.2,2.1,1.6c0.6,0.2,2.2,0.7,4.9,1.6c3.9,1.2,6.6,2.1,8.1,2.9
	c1.5,0.7,2.8,1.8,3.6,3.2c0.9,1.4,1.3,3.2,1.3,5.3c0,2.1-0.5,4-1.6,5.8c-1.1,1.8-2.6,3.2-4.6,4.2c-2,1-4.3,1.5-6.9,1.5
	c-4.2,0-7.4-1-9.7-2.9C503.8,418.7,502.4,415.8,501.8,412z M486.6,422.8v-36.3h5.5v36.3H486.6z M486.6,379.8v-7.1h5.5v7.1H486.6z
	 M455.9,422.8l-17.4-50.1h6.4l11.7,36.4c0.9,2.9,1.7,5.7,2.4,8.2c0.7-2.7,1.5-5.5,2.4-8.2l12.1-36.4h6.1L462,422.8H455.9z
	 M394.3,401.2h18.1c-0.2-3-0.9-5.3-2.1-6.9c-1.8-2.4-4-3.6-6.8-3.6c-2.5,0-4.7,0.9-6.4,2.8C395.4,395.5,394.5,398,394.3,401.2z
	 M412.4,411.1l5.7,0.8c-0.9,3.7-2.6,6.6-5,8.6c-2.4,2-5.5,3.1-9.3,3.1c-4.8,0-8.5-1.6-11.3-4.9c-2.8-3.3-4.2-7.8-4.2-13.8
	c0-6.1,1.4-10.8,4.2-14.2c2.8-3.4,6.5-5.1,11-5.1c4.3,0,7.9,1.7,10.6,5c2.8,3.3,4.1,8,4.1,13.9c0,0.4,0,0.9,0,1.6H394
	c0.2,4,1.2,7,3,9.2c1.8,2.1,4.1,3.2,6.8,3.2c2,0,3.7-0.6,5.2-1.8C410.4,415.6,411.5,413.7,412.4,411.1z M351.8,422.8v-36.3h5v5.2
	c2.4-4,5.8-6,10.3-6c2,0,3.8,0.4,5.4,1.2c1.7,0.8,2.9,1.8,3.7,3.1c0.8,1.3,1.4,2.8,1.7,4.5c0.2,1.1,0.3,3.1,0.3,6v22.3h-5.5v-22.1
	c0-2.5-0.2-4.4-0.6-5.6c-0.4-1.2-1.2-2.2-2.3-3c-1.1-0.7-2.4-1.1-3.8-1.1c-2.3,0-4.4,0.8-6.1,2.5c-1.7,1.7-2.5,4.8-2.5,9.5v19.8
	H351.8z M334.4,422.8v-36.3h5.5v36.3H334.4z M334.4,379.8v-7.1h5.5v7.1H334.4z M296,422.8v-50.1h5.5v18c2.6-3.3,5.8-5,9.7-5
	c2.4,0,4.5,0.5,6.3,1.6c1.8,1.1,3,2.5,3.8,4.4c0.8,1.9,1.1,4.6,1.1,8.1v23H317v-23c0-3.1-0.6-5.3-1.8-6.7c-1.2-1.4-2.9-2.1-5.1-2.1
	c-1.6,0-3.2,0.5-4.6,1.4c-1.4,0.9-2.5,2.2-3.1,3.8c-0.6,1.6-0.9,3.8-0.9,6.7v19.8H296z M282.4,409.5l5.4,0.8
	c-0.6,4.2-2.1,7.4-4.5,9.8c-2.4,2.4-5.4,3.5-9,3.5c-4.4,0-8-1.6-10.7-4.9c-2.7-3.2-4.1-7.9-4.1-14c0-3.9,0.6-7.3,1.7-10.3
	c1.2-2.9,2.9-5.1,5.3-6.6c2.4-1.5,5-2.2,7.8-2.2c3.5,0,6.4,1,8.7,3c2.2,2,3.7,4.8,4.3,8.5l-5.4,0.9c-0.5-2.4-1.4-4.3-2.7-5.5
	c-1.3-1.2-2.9-1.8-4.7-1.8c-2.8,0-5,1.1-6.8,3.3c-1.7,2.2-2.6,5.7-2.6,10.5c0,4.9,0.8,8.4,2.5,10.6c1.7,2.2,3.9,3.3,6.6,3.3
	c2.2,0,4-0.7,5.4-2.2C281.1,414.9,282,412.6,282.4,409.5z M243.6,404.6c-2,0.9-5,1.7-9,2.3c-2.3,0.4-3.9,0.8-4.8,1.2
	c-0.9,0.5-1.7,1.1-2.2,2c-0.5,0.9-0.8,1.8-0.8,2.9c0,1.6,0.6,3,1.7,4.1c1.1,1.1,2.7,1.6,4.9,1.6c2.1,0,4-0.5,5.7-1.6
	c1.6-1,2.9-2.5,3.6-4.3c0.6-1.4,0.9-3.4,0.9-6.1V404.6z M244.1,418.3c-2,1.9-4,3.3-5.9,4.1c-1.9,0.8-3.9,1.2-6.1,1.2
	c-3.6,0-6.3-1-8.2-2.9c-1.9-1.9-2.9-4.4-2.9-7.5c0-1.8,0.4-3.4,1.1-4.9c0.7-1.5,1.7-2.6,2.8-3.5c1.2-0.9,2.5-1.6,4-2
	c1.1-0.3,2.7-0.6,4.9-0.9c4.4-0.6,7.7-1.3,9.8-2.1c0-0.8,0-1.4,0-1.6c0-2.5-0.5-4.3-1.6-5.3c-1.4-1.4-3.5-2.1-6.3-2.1
	c-2.6,0-4.5,0.5-5.7,1.5c-1.2,1-2.1,2.8-2.7,5.4l-5.4-0.8c0.5-2.6,1.3-4.7,2.4-6.2c1.1-1.6,2.7-2.8,4.9-3.7c2.1-0.9,4.6-1.3,7.4-1.3
	c2.8,0,5,0.4,6.8,1.1c1.7,0.7,3,1.6,3.8,2.8c0.8,1.1,1.4,2.5,1.7,4.2c0.2,1,0.3,2.9,0.3,5.7v8.2c0,5.7,0.1,9.3,0.4,10.8
	c0.2,1.5,0.7,3,1.4,4.4h-5.8C244.6,421.5,244.2,420,244.1,418.3z M167.7,422.8v-50.1h8.9l10.6,35.5c1,3.3,1.7,5.8,2.1,7.4
	c0.5-1.8,1.3-4.5,2.4-8l10.7-34.8h8v50.1h-5.7v-41.9l-13,41.9h-5.4l-13-42.6v42.6H167.7z"/>
<polygon class="st2" points="107.8,230.4 135.7,237.9 174.6,248.3 61.3,357.8 51.7,321.8 43.7,292.3 "/>
<polygon class="st3" points="20.9,207.1 101.6,228.7 42.1,286.2 "/>
<polygon class="st4" points="180.8,250 250.4,268.6 166.4,352.6 82.4,436.6 62.9,363.8 "/>
<path class="st0" d="M588.9,231.7h5.4c1.2,0,2.1-0.1,2.7-0.4c0.6-0.3,1.1-0.7,1.4-1.3c0.4-0.6,0.5-1.3,0.5-2.1c0-1.2-0.3-2.1-1-2.7
	c-0.7-0.7-1.7-1-3-1h-6V231.7z M586.4,244.6v-23h8.4c1.8,0,3,0.2,3.9,0.6c0.8,0.4,1.5,1.1,2,2.1c0.5,1,0.8,2.2,0.8,3.5
	c0,1.7-0.4,3.1-1.4,4.2c-0.9,1.1-2.2,1.8-4,2.1c0.7,0.4,1.2,0.8,1.6,1.3c0.7,0.9,1.4,1.9,2,2.9l3.3,6.3h-3.1l-2.5-4.8
	c-1-1.9-1.7-3.1-2.2-3.8c-0.5-0.7-1-1.1-1.4-1.3c-0.5-0.2-1.1-0.3-2-0.3h-2.9v10.2H586.4z"/>
<path class="st5" d="M588.9,231.7h5.4c1.2,0,2.1-0.1,2.7-0.4c0.6-0.3,1.1-0.7,1.4-1.3c0.4-0.6,0.5-1.3,0.5-2.1c0-1.2-0.3-2.1-1-2.7
	c-0.7-0.7-1.7-1-3-1h-6V231.7z M586.4,244.6v-23h8.4c1.8,0,3,0.2,3.9,0.6c0.8,0.4,1.5,1.1,2,2.1c0.5,1,0.8,2.2,0.8,3.5
	c0,1.7-0.4,3.1-1.4,4.2c-0.9,1.1-2.2,1.8-4,2.1c0.7,0.4,1.2,0.8,1.6,1.3c0.7,0.9,1.4,1.9,2,2.9l3.3,6.3h-3.1l-2.5-4.8
	c-1-1.9-1.7-3.1-2.2-3.8c-0.5-0.7-1-1.1-1.4-1.3c-0.5-0.2-1.1-0.3-2-0.3h-2.9v10.2H586.4z"/>
<circle class="st6" cx="594.7" cy="233" r="21"/>
<path class="st0" d="M518.5,262.6v79.5h-20.2v-79.5h-29.2v-17.1h78.6v17.1H518.5z M400.4,290.6h18.7c6.5,0,10.9-2,13.2-5.9
	c1.3-2.2,1.9-5.2,1.9-9.1c0-4.8-1.4-8.2-4.2-10.2c-2.8-2.1-7.3-3.1-13.6-3.1h-16V290.6z M400.4,307.3v34.8h-20.2v-96.6h44.1
	c9.3,0,16.7,2.8,22,8.3c5.3,5.5,8,13.1,8,22.7c0,6.8-1.9,13.1-5.7,18.7c-5.4,8.1-13.8,12.1-25.2,12.1H400.4z M284,293.8
	c0,12.2,3,21.2,9,27c4.6,4.5,10.3,6.7,17.2,6.7c6.8,0,12.6-2.2,17.2-6.7c6-5.8,9-14.8,9-27c0-12.2-3-21.2-9-27
	c-4.6-4.5-10.3-6.7-17.2-6.7c-6.8,0-12.6,2.2-17.2,6.7C287,272.6,284,281.6,284,293.8z M263.8,293.8c0-13.8,3.1-24.9,9.1-33.4
	c4.8-6.6,11.3-11.4,19.5-14.4c5.7-2.1,11.6-3.1,17.8-3.1c6.1,0,12,1,17.6,3.1c8.3,3,14.8,7.8,19.5,14.4c6.2,8.5,9.3,19.6,9.3,33.4
	c0,13.8-3,24.9-9.1,33.4c-4.8,6.6-11.3,11.4-19.5,14.4c-5.7,2.1-11.6,3.1-17.8,3.1c-6.1,0-12-1-17.6-3.1c-8.3-3-14.8-7.8-19.5-14.4
	C266.9,318.7,263.8,307.5,263.8,293.8z"/>
</svg>
